<?xml version="1.0" encoding="UTF-8"?>
<svg enable-background="new 0 0 487.932 490.305" viewBox="0 0 487.932 490.305" xmlns="http://www.w3.org/2000/svg">
 <path d="m312.361,227.316c6.822,25.457.109,50.505-18.525,69.141-18.637,18.636-43.684,25.347-69.141,18.525s-43.793-25.157-50.614-50.614-.109-50.504 18.526-69.14 43.684-25.347 69.141-18.526 43.793,25.157 50.613,50.614" fill="none" stroke="#000" stroke-linejoin="round" stroke-miterlimit="10" stroke-width=".5892"/>
 <path d="m218.92 231.81-193.9-111.95 193.9 111.95zm38.326-10.27 111.94-193.9-111.94 193.9zm10.27 38.327 193.9 111.94-193.9-111.94zm-38.327 10.27-111.94 193.9 111.94-193.9z" fill="#fffcfc" fill-rule="evenodd"/>
 <path d="m218.92 231.81-193.9-111.95 193.9 111.95zm38.326-10.27 111.94-193.9-111.94 193.9zm10.27 38.327 193.9 111.94-193.9-111.94zm-38.327 10.27-111.94 193.9 111.94-193.9z" fill="none" stroke="#000" stroke-dasharray="1.9826,23.7911" stroke-dashoffset="19" stroke-linejoin="round" stroke-miterlimit="10" stroke-width="1.9826"/>
 <path d="m379.78 209.25c20.199 75.379-24.586 152.95-99.965 173.15s-152.95-24.588-173.15-99.967 24.587-152.95 99.967-173.15 152.95 24.588 173.15 99.967z" fill="none" stroke="#000" stroke-dasharray="7.0504,7.0504" stroke-linejoin="round" stroke-miterlimit="10" stroke-width="3.5252"/>
 <path d="m381.57 215.93c-3.76 1.007-7.627-1.226-8.635-4.985s1.227-7.627 4.984-8.635 7.629 1.226 8.637 4.985-1.226 7.627-4.986 8.635z" fill-rule="evenodd"/>
 <path d="m381.57 215.93c-3.76 1.007-7.627-1.226-8.635-4.985s1.227-7.627 4.984-8.635 7.629 1.226 8.637 4.985-1.226 7.627-4.986 8.635z" fill="none" stroke="#000" stroke-miterlimit="10" stroke-width="1.7626"/>
 <path d="m273.14 384.19c-1.008-3.76 1.225-7.628 4.984-8.635s7.627 1.226 8.635 4.985-1.227 7.627-4.984 8.635-7.629-1.227-8.635-4.985z" fill-rule="evenodd"/>
 <path d="m273.14 384.19c-1.008-3.76 1.225-7.628 4.984-8.635s7.627 1.226 8.635 4.985-1.227 7.627-4.984 8.635-7.629-1.227-8.635-4.985z" fill="none" stroke="#000" stroke-miterlimit="10" stroke-width="1.7626"/>
 <path d="m104.88 275.76c3.759-1.008 7.628 1.226 8.635 4.985s-1.226 7.628-4.985 8.635-7.627-1.227-8.635-4.985 1.226-7.628 4.985-8.635z" fill-rule="evenodd"/>
 <path d="m104.88 275.76c3.759-1.008 7.628 1.226 8.635 4.985s-1.226 7.628-4.985 8.635-7.627-1.227-8.635-4.985 1.226-7.628 4.985-8.635z" fill="none" stroke="#000" stroke-miterlimit="10" stroke-width="1.7626"/>
 <path d="m213.3 107.5c1.007 3.759-1.226 7.628-4.985 8.635s-7.628-1.226-8.635-4.985 1.226-7.628 4.985-8.635 7.628 1.226 8.635 4.985z" fill-rule="evenodd"/>
 <path d="m213.3 107.5c1.007 3.759-1.226 7.628-4.985 8.635s-7.628-1.226-8.635-4.985 1.226-7.628 4.985-8.635 7.628 1.226 8.635 4.985z" fill="none" stroke="#000" stroke-miterlimit="10" stroke-width="1.7626"/>
 <path d="m365.77 213.01c18.125 67.645-22.064 137.26-89.711 155.38-67.644 18.126-137.26-22.064-155.38-89.709s22.064-137.26 89.709-155.38c67.645-18.124 137.26 22.065 155.38 89.71z" fill="none" stroke="#000" stroke-linejoin="round" stroke-miterlimit="10" stroke-width="3.1636"/>
 <path d="m355.6 215.73-95.327 39.957 13.061 102.53-39.957-95.326-102.53 13.06 95.326-39.956-13.06-102.53 39.956 95.326 102.53-13.06z" fill="#6e6e6e" fill-rule="evenodd"/>
 <path d="m399.15 335.87-148.59-62.635-97.363 128.54 62.635-148.59-128.54-97.364 148.59 62.636 97.363-128.54-62.635 148.59 128.54 97.362z" fill-rule="evenodd"/>
 <path d="m399.15 335.87-148.59-62.635-97.363 128.54 62.635-148.59-128.54-97.364 148.59 62.636 97.363-128.54-62.635 148.59 128.54 97.362z" fill="none" stroke="#000" stroke-linejoin="round" stroke-miterlimit="10" stroke-width="2.0905"/>
 <path d="m239.678,163.812c.413-1.651 7.447-1.369 7.074.124-1.711,12.55-.924,16.492-.924,16.492l-5.504-.111c.25,1.221.994-8.51-.646-16.505m41.49,9.218c1.184-1.224 7.135,2.538 6.064,3.644-7.758,10.013-9.047,13.82-9.047,13.82l-4.711-2.848c-.394,1.184 5.116-6.872 7.694-14.616m31.322,28.728c1.637-.468 4.91,5.765 3.43,6.188-11.725,4.793-14.744,7.445-14.744,7.445l-2.656-4.822c-.932.828 7.867-3.393 13.97-8.811m12.762,40.54c1.652.413 1.369,7.447-.123,7.074-12.551-1.711-16.492-.924-16.492-.924l.111-5.504c-1.223.251 8.51.994 16.504-.646m-9.217,41.491c1.223,1.183-2.539,7.134-3.645,6.063-10.014-7.757-13.82-9.046-13.82-9.046l2.848-4.711c-1.184-.393 6.873,5.117 14.617,7.694m-28.728,31.322c.469,1.637-5.766,4.909-6.188,3.43-4.793-11.725-7.445-14.744-7.445-14.744l4.82-2.656c-.828-.933 3.395,7.867 8.813,13.97m-40.541,12.763c-.412,1.651-7.447,1.368-7.074-.125 1.711-12.55.924-16.491.924-16.491l5.505.111c-.251-1.222-.996,8.509.645,16.505m-41.491-9.219c-1.183,1.225-7.134-2.538-6.064-3.645 7.757-10.013 9.046-13.819 9.046-13.819l4.711,2.848c.395-1.184-5.115,6.872-7.693,14.616m-31.322-28.727c-1.637.468-4.909-5.766-3.43-6.188 11.724-4.793 14.744-7.445 14.744-7.445l2.656,4.822c.933-.829-7.866,3.393-13.97,8.811m-12.762-40.541c-1.652-.413-1.369-7.447.124-7.074 12.55,1.711 16.491.924 16.491.924l-.111,5.504c1.222-.251-8.509-.995-16.504.646m9.218-41.491c-1.224-1.184 2.538-7.134 3.645-6.064 10.013,7.757 13.82,9.046 13.82,9.046l-2.848,4.711c1.183.394-6.873-5.115-14.617-7.693m28.728-31.322c-.468-1.637 5.765-4.909 6.188-3.43 4.793,11.725 7.445,14.744 7.445,14.744l-4.822,2.656c.829.933-3.393-7.866-8.811-13.97" fill="none" stroke="#000" stroke-linejoin="round" stroke-miterlimit="10" stroke-width="1.8528"/>
 <path d="m255.79 249.38 15.326-3.643 104.7 72.939-120.02-69.296z" fill="#fff" fill-rule="evenodd"/>
 <path d="m240.86 257.23 3.333 15.769-72.629 104.26 69.296-120.03z" fill="#fff" fill-rule="evenodd"/>
 <path d="m230.65 242.3-15.811 3.304-104.22-72.601 120.03 69.297z" fill="#fff" fill-rule="evenodd"/>
 <path d="m246.76 233.27-2.743-16.614 72.04-103.41-69.297 120.02z" fill="#fff" fill-rule="evenodd"/>
 <path d="m263.55 240.4c3.006 11.22-3.66 22.765-14.879 25.771s-22.765-3.66-25.771-14.879 3.66-22.766 14.879-25.771 22.765 3.66 25.771 14.879z" fill="#fffcfc" fill-rule="evenodd"/>
 <path d="m263.55 240.4c3.006 11.22-3.66 22.765-14.879 25.771s-22.765-3.66-25.771-14.879 3.66-22.766 14.879-25.771 22.765 3.66 25.771 14.879z" fill="none" stroke="#000" stroke-linejoin="round" stroke-miterlimit="10" stroke-width="2.9459"/>
 <path d="m370.086,0 7.66,4.422 5.328,21.391 4.746-8.22c.578-1.001.914-1.976 1.006-2.924s-.072-1.804-.492-2.569c-.221-.418-.479-.774-.777-1.067s-.746-.644-1.35-1.052l.293-.505 9.449,5.456-.293.505-.191-.11c-1.373-.794-2.674-.961-3.896-.502-1.225.458-2.316,1.521-3.277,3.187l-7.877,13.641-.449-.26-6.701-26.425-6.543,11.333c-.635,1.102-1.012,2.059-1.129,2.871s.012,1.576.389,2.291c.314.57.793,1.096 1.438,1.577 .346.284.865.645 1.561,1.083l-.293.505-9.953-5.747 .291-.505c1.051.534 1.986.833 2.805.899s1.553-.114 2.203-.539c.652-.425 1.236-1.083 1.75-1.975l6.229-10.787c.385-.665.563-1.314.533-1.949s-.25-1.241-.67-1.817-1.031-1.096-1.832-1.558l-.246-.142 .288-.508z"/>
 <path d="m123.128,472.874 .478.275-3.776,6.541-.478-.276c.336-1.905.395-3.511.176-4.813-.171-.924-.519-1.851-1.045-2.779s-1.205-1.813-2.038-2.651-1.754-1.55-2.765-2.133c-.755-.437-1.49-.721-2.202-.853s-1.392-.112-2.038.062c-.459.123-.881.316-1.264.581s-.672.564-.866.901c-.368.637-.44,1.33-.217,2.078 .096.358.296.765.598,1.219s.73.974 1.284,1.561 1.347,1.372 2.38,2.357c.27.289.458.478.566.563l.575.551 .907.888c1.534,1.505 2.613,2.674 3.237,3.507s1.058,1.71 1.304,2.629c.208.69.272,1.395.191,2.112s-.313,1.409-.697,2.074-.899,1.231-1.563,1.729-1.399.846-2.207,1.047c-1.073.304-2.204.343-3.391.118s-2.414-.701-3.679-1.433c-.883-.51-1.663-1.078-2.338-1.704s-1.437-1.501-2.283-2.62c-.56-.712-1.001-1.23-1.323-1.556s-.651-.586-.988-.78c-.646-.373-1.293-.52-1.941-.438s-1.226.394-1.734.938l-.478-.276 5.093-8.82 .478.275c-.713,1.677-.9,3.462-.562,5.356 .215,1.12.641,2.291 1.276,3.513s1.401,2.33 2.298,3.32 1.841,1.773 2.833,2.346c.883.51 1.775.831 2.676.963s1.706.057 2.415-.226 1.253-.752 1.632-1.407c.399-.691.481-1.476.247-2.352-.113-.393-.312-.811-.596-1.254s-.685-.96-1.2-1.549-1.247-1.356-2.192-2.304l-1.153-1.157c-1.799-1.803-3.016-3.101-3.651-3.892-.725-.868-1.252-1.621-1.581-2.261s-.535-1.328-.618-2.067c-.144-1.055.037-2.019.541-2.893 .61-1.056 1.472-1.823 2.586-2.303s2.373-.63 3.774-.451 2.791.664 4.165,1.458c2.075,1.198 3.895,3.019 5.458,5.463 .557.843.976,1.347 1.258,1.51 .712.41 1.524.181 2.438-.687z"/>
 <path d="m1.44,91.657 9.927,5.731-.264.521c-.815-.459-1.473-.692-1.971-.701s-.877.21-1.134.656c-.252.437-.436.944-.55,1.521l-2.413,13.481 9.481-7.435c.217-1.112.332-1.957.343-2.533s-.067-1.149-.236-1.72c-.128-.535-.328-.972-.6-1.311s-.658-.653-1.158-.942l.292-.505 10.35,5.976-.292.505-.505-.292c-.819-.473-1.537-.702-2.152-.687s-1.076.286-1.38.814c-.205.355-.336.729-.392,1.121l-2.362,13.583 9.956-7.942c.521-.44.91-.883 1.168-1.329 .394-.683.422-1.346.084-1.991-.338-.644-1.055-1.3-2.149-1.969l.265-.521 7.66,4.422-.292.505c-.531-.258-.989-.416-1.374-.475s-.846-.054-1.382.012c-1.111.16-2.322.753-3.632,1.781l-14.792,11.778-.505-.292 2.991-17.226-13.889,10.938-.533-.308 3.203-18.287c.311-1.653.342-2.958.094-3.915s-.806-1.685-1.67-2.184l-.478-.276 .291-.504z"/>
 <path d="m467.643,361.344 20.289,11.715-4.264,7.387-.41-.236c.373-1.508.598-2.668.672-3.48s.041-1.643-.102-2.489c-.18-1.014-.521-1.861-1.027-2.541-.852-1.111-2.078-2.129-3.68-3.054l-3.756-2.168-5.234,9.066 1.01.584c1.502.867 3.068.909 4.697.126 .838-.401 1.633-.999 2.383-1.792 .334-.329.768-.849 1.301-1.562l.479.276-7.221,12.508-.479-.276c.279-.736.516-1.446.711-2.129s.305-1.266.334-1.746 .006-.992-.07-1.534c-.236-1.483-1.109-2.661-2.621-3.533l-.791-.457-4.928,8.534 3.141,1.813c.928.536 1.801.952 2.619,1.249s1.604.477 2.355.54 1.516.022 2.293-.124c1.328-.24 2.564-.783 3.707-1.628 .656-.483 1.455-1.187 2.4-2.109l.506.292-4.533,7.852-20.768-11.991 .264-.521 .52.3c2.313,1.335 4.141.837 5.486-1.493l6.408-11.102c.684-1.184.906-2.22.668-3.11s-.949-1.677-2.133-2.36l-.52-.3 .294-.507z"/>
 <path d="m374.418,4.676 6.162,24.349c2.99-3.565-.623-8.059-.924-12.084-1.279-3.911-1.541-8.587-3.438-12.033-.622-.025-2.909-2.468-1.8-.232zm15.5,8.395c-.107,1.432.42,1.075 1.434.573-.196.115-1.864-1.476-1.434-.573zm-25.613,6.877c-2.006.267 1.017,1.494 0,0z" fill="#fff6f6"/>
 <path d="m121.098,474.924c-.871-.383-.034,1.734 0,0zm-14.574-8.266c-3.393,1.279-2.889,5.736-.496,7.708 2.803,3.952 8.057,6.543 9.168,11.48 .428.987-1.419,3.452.174,2.056 3.268-2.511.856-7.096-1.757-9.072-2.586-3.317-7.692-5.627-7.796-10.284-.042-.628.724-1.766.707-1.888zm-8.573,13.781c.963-.138 2.396.982 1.495-.711-.277-2.761-.478-.582-1.495.711z" fill="#fff6f6"/>
 <path d="m4.592,95.198c-.18,6.589-2.229,13.098-3.061,19.663 4.037-2.213 2.666-7.653 4.008-11.473 .661-2.228.267-5.071 2.047-6.822-.707-.156-3.052-2.257-2.994-1.368zm11.3,6.205c.346,5.647-1.887,11.807-2.536,17.758-.562,5.151 3.552-2.688 2.817-5.145 1.23-3.444.125-8.107 2.878-10.832-1.017-.562-2.245-1.346-3.159-1.781zm13.145,7.76c.299.386.223-.632 0,0z" fill="#fff6f6"/>
 <path d="m471.283,364.919c-.418,4.705-4.443,8.243-6.227,12.478-.967,1.646-1.822,3.634-3.688,4.398 3.736,3.987 4.639-2.608 6.668-4.995l6.002-10.396c-.829-.413-2.143-1.373-2.755-1.485zm13.385,7.855c.563.753.117,4.121 1.061,1.738 1.757-1.012-1.266-2.216-1.061-1.738zm-8.662,4.694c-1.117.507-2.746.205-1.703,1.737-.022,3.165 1.615-1.91 1.703-1.737zm2.307,10.771c-1.201.648-2.531.954-3.869,1.104 2.613,2.335 3.286.71 3.869-1.104z" fill="#fff6f6"/>
 <path d="m228.648,238.814c-2.859,11.584 3.745,20.13 19.799,24.446 .158.198-11.731,1.009-17.577-4.849-6.973-6.987-3.973-20.27-2.222-19.597z" fill="#888" fill-rule="evenodd"/>
 <path d="m255.98 258.4c7.461-10.233 3.227-26.195-8.465-31.199-0.057-0.247 7.238 2.292 11.855 9.161 6.651 9.897-1.301 23.541-3.39 22.038z" fill="#888" fill-rule="evenodd"/>
</svg>
