<?xml version="1.0" encoding="UTF-8"?>
<svg viewBox="0 0 128 128" xmlns="http://www.w3.org/2000/svg">
 <g transform="matrix(.36867 0 0 .36867 7.7552 456.72)" fill="#4c4c4c">
  <path d="m248.04-1062.8zl-95.449-84.53-95.504 84.567v120.84c0 3.1208 2.5218 5.6243 5.6427 5.6243h59.688v-52.982c0-3.1208 2.5035-5.6426 5.6244-5.6426h49.044c3.1208 0 5.6243 2.5218 5.6243 5.6426v52.982h59.706c3.1208 0 5.6244-2.5035 5.6244-5.6243v-120.88zm-190.95 0.0366z"/>
  <path d="m152.04-1193.6l-135.45 119.94 14.268 16.097 121.74-107.8 121.71 107.8 14.241-16.097-135.42-119.94-0.5264 0.6096-0.5541-0.6096z"/>
  <path d="m57.086-1176.4h34.338l-0.2992 20.338-34.038 30.75v-51.088z"/>
 </g>
 <rect x="5.375" y="2.5" width="121.5" height="121.5" fill="none" stroke-dasharray="null" stroke-linecap="null" stroke-linejoin="null" stroke-width="59"/>
</svg>
